<mxfile host="app.diagrams.net" modified="2023-12-05T15:51:33.671Z" agent="Mozilla/5.0 (Windows NT 10.0; Win64; x64) AppleWebKit/537.36 (KHTML, like Gecko) Chrome/119.0.0.0 Safari/537.36" etag="rbJOlr_8TUyCLdGDMtM-" version="22.1.5" type="device">
  <diagram id="n01dC8HmHx-Y3ePc49v5" name="Page-1">
    <mxGraphModel dx="1105" dy="562" grid="1" gridSize="10" guides="1" tooltips="1" connect="1" arrows="1" fold="1" page="1" pageScale="1" pageWidth="850" pageHeight="1100" math="0" shadow="0">
      <root>
        <mxCell id="0" />
        <mxCell id="1" parent="0" />
        <mxCell id="jeoIRTTSL-hbjzVmngVM-1" value="«protocol»&lt;br style=&quot;border-color: var(--border-color); background-color: rgb(251, 251, 251); font-size: 12px;&quot;&gt;&lt;b style=&quot;border-color: var(--border-color); background-color: rgb(251, 251, 251);&quot;&gt;HTTPS/HTTP&lt;/b&gt;" style="rounded=0;orthogonalLoop=1;jettySize=auto;html=1;exitX=0;exitY=0;exitDx=110;exitDy=85;exitPerimeter=0;entryX=-0.002;entryY=0.529;entryDx=0;entryDy=0;entryPerimeter=0;endArrow=none;endFill=0;" parent="1" source="jeoIRTTSL-hbjzVmngVM-5" target="jeoIRTTSL-hbjzVmngVM-28" edge="1">
          <mxGeometry x="0.0197" relative="1" as="geometry">
            <mxPoint x="205.68000000000006" y="310" as="targetPoint" />
            <mxPoint as="offset" />
          </mxGeometry>
        </mxCell>
        <mxCell id="jeoIRTTSL-hbjzVmngVM-2" value="" style="group" parent="1" connectable="0" vertex="1">
          <mxGeometry x="30" y="80" width="290" height="190" as="geometry" />
        </mxCell>
        <mxCell id="jeoIRTTSL-hbjzVmngVM-5" value="" style="verticalAlign=top;align=center;spacingTop=8;spacingLeft=2;spacingRight=12;shape=cube;size=10;direction=south;fontStyle=4;html=1;whiteSpace=wrap;" parent="jeoIRTTSL-hbjzVmngVM-2" vertex="1">
          <mxGeometry x="-16.11111111111111" width="257.77777777777777" height="160.76923076923077" as="geometry" />
        </mxCell>
        <mxCell id="jeoIRTTSL-hbjzVmngVM-6" value="&lt;font style=&quot;font-size: 11px;&quot;&gt;«web server»&lt;br style=&quot;border-color: var(--border-color); font-size: 12px;&quot;&gt;&lt;b&gt;Vercel&lt;/b&gt;&lt;br&gt;&lt;/font&gt;" style="text;html=1;strokeColor=none;fillColor=none;align=center;verticalAlign=middle;whiteSpace=wrap;rounded=0;" parent="jeoIRTTSL-hbjzVmngVM-2" vertex="1">
          <mxGeometry x="32.22222222222222" y="20.00076923076923" width="145" height="29.23076923076923" as="geometry" />
        </mxCell>
        <mxCell id="jeoIRTTSL-hbjzVmngVM-7" value="«user interface»&lt;br&gt;&lt;b&gt;Next.js App&lt;/b&gt;" style="html=1;dropTarget=0;whiteSpace=wrap;" parent="jeoIRTTSL-hbjzVmngVM-2" vertex="1">
          <mxGeometry y="73.07692307692307" width="209.44444444444446" height="58.46153846153846" as="geometry" />
        </mxCell>
        <mxCell id="jeoIRTTSL-hbjzVmngVM-8" value="" style="verticalAlign=top;align=center;spacingTop=8;spacingLeft=2;spacingRight=12;shape=cube;size=10;direction=south;fontStyle=4;html=1;whiteSpace=wrap;" parent="1" vertex="1">
          <mxGeometry x="460" y="60" width="530" height="410" as="geometry" />
        </mxCell>
        <mxCell id="jeoIRTTSL-hbjzVmngVM-9" value="&lt;font style=&quot;font-size: 11px;&quot;&gt;«host»&lt;br style=&quot;border-color: var(--border-color); font-size: 12px;&quot;&gt;&lt;b&gt;Docker Container&lt;/b&gt;&lt;br&gt;&lt;/font&gt;" style="text;html=1;strokeColor=none;fillColor=none;align=center;verticalAlign=middle;whiteSpace=wrap;rounded=0;" parent="1" vertex="1">
          <mxGeometry x="644.9156756756756" y="91.81818181818181" width="148.64864864864865" height="21.818181818181817" as="geometry" />
        </mxCell>
        <mxCell id="jeoIRTTSL-hbjzVmngVM-10" value="" style="group" parent="1" connectable="0" vertex="1">
          <mxGeometry x="493.4" y="190" width="212.16" height="115.45" as="geometry" />
        </mxCell>
        <mxCell id="jeoIRTTSL-hbjzVmngVM-11" value="" style="verticalAlign=top;align=center;spacingTop=8;spacingLeft=2;spacingRight=12;shape=cube;size=10;direction=south;fontStyle=4;html=1;whiteSpace=wrap;" parent="jeoIRTTSL-hbjzVmngVM-10" vertex="1">
          <mxGeometry width="209.29957250904306" height="115.45" as="geometry" />
        </mxCell>
        <mxCell id="jeoIRTTSL-hbjzVmngVM-12" value="&lt;font style=&quot;font-size: 11px;&quot;&gt;«service»&lt;br style=&quot;border-color: var(--border-color); font-size: 12px;&quot;&gt;&lt;b&gt;ide-api&lt;/b&gt;&lt;br&gt;&lt;/font&gt;" style="text;html=1;strokeColor=none;fillColor=none;align=center;verticalAlign=middle;whiteSpace=wrap;rounded=0;" parent="jeoIRTTSL-hbjzVmngVM-10" vertex="1">
          <mxGeometry x="33.27613137783624" y="50.38481108359133" width="129.01824" height="14.684811083591333" as="geometry" />
        </mxCell>
        <mxCell id="jeoIRTTSL-hbjzVmngVM-18" value="&lt;br&gt;&lt;span style=&quot;color: rgb(0, 0, 0); font-family: Helvetica; font-size: 11px; font-style: normal; font-variant-ligatures: normal; font-variant-caps: normal; font-weight: 400; letter-spacing: normal; orphans: 2; text-align: center; text-indent: 0px; text-transform: none; widows: 2; word-spacing: 0px; -webkit-text-stroke-width: 0px; background-color: rgb(255, 255, 255); text-decoration-thickness: initial; text-decoration-style: initial; text-decoration-color: initial; float: none; display: inline !important;&quot;&gt;«protocol»&lt;/span&gt;&lt;br style=&quot;border-color: var(--border-color); color: rgb(0, 0, 0); font-family: Helvetica; font-style: normal; font-variant-ligatures: normal; font-variant-caps: normal; font-weight: 400; letter-spacing: normal; orphans: 2; text-align: center; text-indent: 0px; text-transform: none; widows: 2; word-spacing: 0px; -webkit-text-stroke-width: 0px; text-decoration-thickness: initial; text-decoration-style: initial; text-decoration-color: initial; background-color: rgb(251, 251, 251); font-size: 12px;&quot;&gt;&lt;span style=&quot;background-color: rgb(251, 251, 251);&quot;&gt;&lt;b&gt;TCP/IP&lt;/b&gt;&lt;/span&gt;&lt;br&gt;" style="rounded=0;orthogonalLoop=1;jettySize=auto;html=1;entryX=0;entryY=0;entryDx=60;entryDy=160;entryPerimeter=0;exitX=0.353;exitY=0.002;exitDx=0;exitDy=0;exitPerimeter=0;endArrow=none;endFill=0;dashed=1;" parent="1" source="jeoIRTTSL-hbjzVmngVM-11" target="jeoIRTTSL-hbjzVmngVM-21" edge="1">
          <mxGeometry relative="1" as="geometry">
            <mxPoint x="709.24" y="200" as="sourcePoint" />
          </mxGeometry>
        </mxCell>
        <mxCell id="jeoIRTTSL-hbjzVmngVM-19" value="" style="group" parent="1" connectable="0" vertex="1">
          <mxGeometry x="799.24" y="135.45" width="170" height="140" as="geometry" />
        </mxCell>
        <mxCell id="jeoIRTTSL-hbjzVmngVM-20" value="" style="group" parent="jeoIRTTSL-hbjzVmngVM-19" connectable="0" vertex="1">
          <mxGeometry width="160" height="110" as="geometry" />
        </mxCell>
        <mxCell id="jeoIRTTSL-hbjzVmngVM-21" value="" style="verticalAlign=top;align=center;spacingTop=8;spacingLeft=2;spacingRight=12;shape=cube;size=10;direction=south;fontStyle=4;html=1;whiteSpace=wrap;container=0;" parent="jeoIRTTSL-hbjzVmngVM-20" vertex="1">
          <mxGeometry width="160" height="110" as="geometry" />
        </mxCell>
        <mxCell id="jeoIRTTSL-hbjzVmngVM-22" value="&lt;font style=&quot;font-size: 11px;&quot;&gt;«service»&lt;br style=&quot;border-color: var(--border-color); font-size: 12px;&quot;&gt;&lt;b&gt;postgres-server&lt;/b&gt;&lt;br&gt;&lt;/font&gt;" style="text;html=1;strokeColor=none;fillColor=none;align=center;verticalAlign=middle;whiteSpace=wrap;rounded=0;container=0;" parent="jeoIRTTSL-hbjzVmngVM-20" vertex="1">
          <mxGeometry x="31.34745098039216" y="49.40747987616099" width="97.29882352941176" height="17.807479876160993" as="geometry" />
        </mxCell>
        <mxCell id="jeoIRTTSL-hbjzVmngVM-23" value="" style="group" parent="jeoIRTTSL-hbjzVmngVM-20" connectable="0" vertex="1">
          <mxGeometry x="21.13" y="49.41" width="128.87" height="41.18" as="geometry" />
        </mxCell>
        <mxCell id="jeoIRTTSL-hbjzVmngVM-27" value="" style="group" parent="1" connectable="0" vertex="1">
          <mxGeometry x="120" y="390" width="180" height="130" as="geometry" />
        </mxCell>
        <mxCell id="jeoIRTTSL-hbjzVmngVM-28" value="" style="verticalAlign=top;align=center;spacingTop=8;spacingLeft=2;spacingRight=12;shape=cube;size=10;direction=south;fontStyle=4;html=1;whiteSpace=wrap;" parent="jeoIRTTSL-hbjzVmngVM-27" vertex="1">
          <mxGeometry x="-10" width="160" height="110" as="geometry" />
        </mxCell>
        <mxCell id="jeoIRTTSL-hbjzVmngVM-29" value="&lt;font style=&quot;font-size: 11px;&quot;&gt;«device»&lt;br style=&quot;border-color: var(--border-color); font-size: 12px;&quot;&gt;&lt;b&gt;Computer&lt;/b&gt;&lt;br&gt;&lt;/font&gt;" style="text;html=1;strokeColor=none;fillColor=none;align=center;verticalAlign=middle;whiteSpace=wrap;rounded=0;" parent="jeoIRTTSL-hbjzVmngVM-27" vertex="1">
          <mxGeometry x="20" y="45" width="90" height="20" as="geometry" />
        </mxCell>
        <mxCell id="jeoIRTTSL-hbjzVmngVM-31" value="" style="group" parent="1" connectable="0" vertex="1">
          <mxGeometry x="710" y="340" width="220.76" height="90" as="geometry" />
        </mxCell>
        <mxCell id="jeoIRTTSL-hbjzVmngVM-32" value="" style="group" parent="jeoIRTTSL-hbjzVmngVM-31" connectable="0" vertex="1">
          <mxGeometry width="220.76" height="90" as="geometry" />
        </mxCell>
        <mxCell id="jeoIRTTSL-hbjzVmngVM-33" value="" style="verticalAlign=top;align=center;spacingTop=8;spacingLeft=2;spacingRight=12;shape=cube;size=10;direction=south;fontStyle=4;html=1;whiteSpace=wrap;" parent="jeoIRTTSL-hbjzVmngVM-32" vertex="1">
          <mxGeometry y="18" width="217.74506828528072" height="90" as="geometry" />
        </mxCell>
        <mxCell id="jeoIRTTSL-hbjzVmngVM-34" value="&lt;font style=&quot;font-size: 11px;&quot;&gt;«volume»&lt;br style=&quot;border-color: var(--border-color); font-size: 12px;&quot;&gt;&lt;b&gt;Database Volume&lt;/b&gt;&lt;br&gt;&lt;/font&gt;" style="text;html=1;strokeColor=none;fillColor=none;align=center;verticalAlign=middle;whiteSpace=wrap;rounded=0;" parent="jeoIRTTSL-hbjzVmngVM-32" vertex="1">
          <mxGeometry x="21.774506828528075" y="47.322" width="162.42107132018208" height="31.338" as="geometry" />
        </mxCell>
        <mxCell id="jeoIRTTSL-hbjzVmngVM-35" value="«volume»" style="rounded=0;orthogonalLoop=1;jettySize=auto;html=1;exitX=0;exitY=0;exitDx=0;exitDy=60;exitPerimeter=0;startArrow=classic;startFill=1;endArrow=none;endFill=0;dashed=1;align=center;entryX=0.999;entryY=0.564;entryDx=0;entryDy=0;entryPerimeter=0;" parent="1" source="jeoIRTTSL-hbjzVmngVM-33" target="jeoIRTTSL-hbjzVmngVM-21" edge="1">
          <mxGeometry relative="1" as="geometry">
            <mxPoint x="799.24" y="674.5454545454545" as="targetPoint" />
          </mxGeometry>
        </mxCell>
        <mxCell id="jeoIRTTSL-hbjzVmngVM-3" style="edgeStyle=orthogonalEdgeStyle;rounded=0;orthogonalLoop=1;jettySize=auto;html=1;exitX=0;exitY=0;exitDx=50;exitDy=0;exitPerimeter=0;endArrow=none;endFill=0;entryX=0.46;entryY=1.001;entryDx=0;entryDy=0;entryPerimeter=0;" parent="1" source="jeoIRTTSL-hbjzVmngVM-5" edge="1" target="jeoIRTTSL-hbjzVmngVM-8">
          <mxGeometry relative="1" as="geometry">
            <mxPoint x="465" y="152.75213675213666" as="targetPoint" />
          </mxGeometry>
        </mxCell>
        <mxCell id="jeoIRTTSL-hbjzVmngVM-4" value="«protocol»&lt;br style=&quot;border-color: var(--border-color); background-color: rgb(251, 251, 251); font-size: 12px;&quot;&gt;&lt;b style=&quot;border-color: var(--border-color); background-color: rgb(251, 251, 251);&quot;&gt;HTTPS/HTTP&lt;/b&gt;" style="edgeLabel;html=1;align=center;verticalAlign=middle;resizable=0;points=[];" parent="jeoIRTTSL-hbjzVmngVM-3" connectable="0" vertex="1">
          <mxGeometry x="0.2571" y="-3" relative="1" as="geometry">
            <mxPoint x="-13" y="-135" as="offset" />
          </mxGeometry>
        </mxCell>
      </root>
    </mxGraphModel>
  </diagram>
</mxfile>
